<mxfile host="app.diagrams.net" modified="2023-07-02T11:00:20.387Z" agent="Mozilla/5.0 (Windows NT 10.0; Win64; x64) AppleWebKit/537.36 (KHTML, like Gecko) Chrome/113.0.0.0 Safari/537.36 OPR/99.0.0.0 (Edition Yx GX)" etag="gaiOM0HjcydIyg8EEdXp" version="21.5.2" type="github">
  <diagram name="Страница 1" id="7_hjcgo5mAQ_RonFbOtV">
    <mxGraphModel dx="961" dy="523" grid="1" gridSize="10" guides="1" tooltips="1" connect="1" arrows="1" fold="1" page="1" pageScale="1" pageWidth="827" pageHeight="1169" math="0" shadow="0">
      <root>
        <mxCell id="0" />
        <mxCell id="1" parent="0" />
        <mxCell id="ZUwdENcZj-k-eqBRpZ0E-10" value="" style="swimlane;startSize=0;fillColor=#f8cecc;strokeColor=#b85450;" parent="1" vertex="1">
          <mxGeometry x="280" y="350" width="270" height="380" as="geometry" />
        </mxCell>
        <mxCell id="TgLd_3PEtrd0lz9hGRbb-7" style="edgeStyle=orthogonalEdgeStyle;rounded=0;orthogonalLoop=1;jettySize=auto;html=1;startArrow=classic;startFill=1;" edge="1" parent="ZUwdENcZj-k-eqBRpZ0E-10" source="ZUwdENcZj-k-eqBRpZ0E-2">
          <mxGeometry relative="1" as="geometry">
            <mxPoint x="-80" y="120" as="targetPoint" />
          </mxGeometry>
        </mxCell>
        <mxCell id="ZUwdENcZj-k-eqBRpZ0E-2" value="&lt;font style=&quot;font-size: 16px;&quot;&gt;go_microservice&lt;/font&gt;" style="swimlane;fontStyle=0;childLayout=stackLayout;horizontal=1;startSize=30;horizontalStack=0;resizeParent=1;resizeParentMax=0;resizeLast=0;collapsible=1;marginBottom=0;whiteSpace=wrap;html=1;" parent="ZUwdENcZj-k-eqBRpZ0E-10" vertex="1" collapsed="1">
          <mxGeometry x="65" y="105" width="135" height="30" as="geometry">
            <mxRectangle x="65" y="105" width="140" height="30" as="alternateBounds" />
          </mxGeometry>
        </mxCell>
        <mxCell id="ZUwdENcZj-k-eqBRpZ0E-14" value="&lt;span style=&quot;font-size: 16px;&quot;&gt;Yandex WM&lt;/span&gt;" style="text;html=1;strokeColor=none;fillColor=none;align=center;verticalAlign=middle;whiteSpace=wrap;rounded=0;fontStyle=1" parent="ZUwdENcZj-k-eqBRpZ0E-10" vertex="1">
          <mxGeometry x="20" y="330" width="119" height="30" as="geometry" />
        </mxCell>
        <mxCell id="ZUwdENcZj-k-eqBRpZ0E-27" style="edgeStyle=orthogonalEdgeStyle;rounded=0;orthogonalLoop=1;jettySize=auto;html=1;startArrow=classic;startFill=1;" parent="ZUwdENcZj-k-eqBRpZ0E-10" edge="1">
          <mxGeometry relative="1" as="geometry">
            <mxPoint x="135" y="225" as="sourcePoint" />
            <mxPoint x="135" y="255" as="targetPoint" />
          </mxGeometry>
        </mxCell>
        <mxCell id="TgLd_3PEtrd0lz9hGRbb-8" style="edgeStyle=orthogonalEdgeStyle;rounded=0;orthogonalLoop=1;jettySize=auto;html=1;startArrow=classic;startFill=1;" edge="1" parent="ZUwdENcZj-k-eqBRpZ0E-10" source="ZUwdENcZj-k-eqBRpZ0E-15">
          <mxGeometry relative="1" as="geometry">
            <mxPoint x="-80" y="200" as="targetPoint" />
          </mxGeometry>
        </mxCell>
        <mxCell id="ZUwdENcZj-k-eqBRpZ0E-15" value="&lt;font style=&quot;font-size: 16px;&quot;&gt;analysis_service&lt;/font&gt;" style="swimlane;fontStyle=0;childLayout=stackLayout;horizontal=1;startSize=30;horizontalStack=0;resizeParent=1;resizeParentMax=0;resizeLast=0;collapsible=1;marginBottom=0;whiteSpace=wrap;html=1;" parent="ZUwdENcZj-k-eqBRpZ0E-10" vertex="1">
          <mxGeometry x="65" y="185" width="140" height="30" as="geometry" />
        </mxCell>
        <mxCell id="ZUwdENcZj-k-eqBRpZ0E-26" value="&lt;span style=&quot;font-size: 16px;&quot;&gt;Sqlite&lt;/span&gt;&lt;br&gt;&lt;font style=&quot;font-size: 12px;&quot;&gt;для хэширование запросов&lt;/font&gt;" style="swimlane;fontStyle=0;childLayout=stackLayout;horizontal=1;startSize=90;horizontalStack=0;resizeParent=1;resizeParentMax=0;resizeLast=0;collapsible=1;marginBottom=0;whiteSpace=wrap;html=1;" parent="ZUwdENcZj-k-eqBRpZ0E-10" vertex="1">
          <mxGeometry x="42.5" y="260" width="185" height="40" as="geometry" />
        </mxCell>
        <mxCell id="ZUwdENcZj-k-eqBRpZ0E-12" value="&lt;font style=&quot;font-size: 16px;&quot;&gt;MySQL&lt;/font&gt;&lt;br&gt;&lt;font style=&quot;font-size: 10px;&quot;&gt;All Last Request&lt;/font&gt;" style="swimlane;fontStyle=0;childLayout=stackLayout;horizontal=1;startSize=30;horizontalStack=0;resizeParent=1;resizeParentMax=0;resizeLast=0;collapsible=1;marginBottom=0;whiteSpace=wrap;html=1;rounded=1;arcSize=50;" parent="ZUwdENcZj-k-eqBRpZ0E-10" vertex="1">
          <mxGeometry x="61" y="30" width="146" height="30" as="geometry" />
        </mxCell>
        <mxCell id="TgLd_3PEtrd0lz9hGRbb-1" style="edgeStyle=orthogonalEdgeStyle;rounded=0;orthogonalLoop=1;jettySize=auto;html=1;exitX=0.5;exitY=1;exitDx=0;exitDy=0;" edge="1" parent="ZUwdENcZj-k-eqBRpZ0E-10" source="ZUwdENcZj-k-eqBRpZ0E-14" target="ZUwdENcZj-k-eqBRpZ0E-14">
          <mxGeometry relative="1" as="geometry" />
        </mxCell>
        <mxCell id="TgLd_3PEtrd0lz9hGRbb-2" style="edgeStyle=orthogonalEdgeStyle;rounded=0;orthogonalLoop=1;jettySize=auto;html=1;startArrow=classic;startFill=1;" edge="1" parent="ZUwdENcZj-k-eqBRpZ0E-10">
          <mxGeometry relative="1" as="geometry">
            <mxPoint x="133" y="70" as="sourcePoint" />
            <mxPoint x="133" y="100" as="targetPoint" />
          </mxGeometry>
        </mxCell>
        <mxCell id="ZUwdENcZj-k-eqBRpZ0E-17" style="edgeStyle=orthogonalEdgeStyle;rounded=0;orthogonalLoop=1;jettySize=auto;html=1;startArrow=classic;startFill=1;endArrow=classic;endFill=1;exitX=1;exitY=0.5;exitDx=0;exitDy=0;" parent="1" edge="1" source="ZUwdENcZj-k-eqBRpZ0E-2">
          <mxGeometry relative="1" as="geometry">
            <mxPoint x="510" y="470" as="sourcePoint" />
            <mxPoint x="485" y="555" as="targetPoint" />
            <Array as="points">
              <mxPoint x="615" y="470" />
              <mxPoint x="615" y="555" />
            </Array>
          </mxGeometry>
        </mxCell>
      </root>
    </mxGraphModel>
  </diagram>
</mxfile>
